/vscmnt/brussel_pixiu_data/_data_brussel/112/vsc11236/PredSimResults/SUBJ10opt3D/weighted-LRposFixed/trackIG/worker_03.mot
version=1
nRows=8
nColumns=50
inDegrees=yes
endheader
                time	         pelvis_tilt	         pelvis_list	     pelvis_rotation	           pelvis_tx	           pelvis_ty	           pelvis_tz	       hip_flexion_r	     hip_adduction_r	      hip_rotation_r	        knee_angle_r	       ankle_angle_r	         mtp_angle_r	       hip_flexion_l	     hip_adduction_l	      hip_rotation_l	        knee_angle_l	       ankle_angle_l	         mtp_angle_l	    lumbar_extension	      lumbar_bending	     lumbar_rotation	 ercspn_r/activation	 intobl_r/activation	 extobl_r/activation	    abd_r/activation	    add_r/activation	hamstrings_r/activation	bifemsh_r/activation	glut_max_r/activation	iliopsoas_r/activation	rect_fem_r/activation	  vasti_r/activation	gastroc_r/activation	 soleus_r/activation	tib_ant_r/activation	 ercspn_l/activation	 intobl_l/activation	 extobl_l/activation	    abd_l/activation	    add_l/activation	hamstrings_l/activation	bifemsh_l/activation	glut_max_l/activation	iliopsoas_l/activation	rect_fem_l/activation	  vasti_l/activation	gastroc_l/activation	 soleus_l/activation	tib_ant_l/activation	
          0.00000000	         -4.71712562	         -0.91816112	          6.66978495	          0.00000000	          0.82117399	         -0.01339131	         31.17874187	         -1.40354921	         -5.59073984	         -7.46665613	          2.96054134	          0.26196233	        -15.07157869	         -0.43898172	         -0.15695074	         -6.57513694	          8.93410566	         26.98345896	         -6.23088077	         -0.37026257	         -7.15015350	          0.10635786	          0.14278336	          0.00999999	          0.00999999	          0.22058451	          0.11981292	          0.18656761	          0.05946165	          0.10507253	          0.00999999	          0.00999999	          0.01703673	          0.01295747	          0.29674310	          0.09788249	          0.00999999	          0.00999999	          0.05894523	          0.01000000	          0.01439906	          0.22119174	          0.02034768	          0.48875656	          0.00999999	          0.00999999	          0.32907231	          0.26549378	          0.02343806	
          0.01166054	         -4.75094274	         -0.91944028	          6.80355019	          0.01580730	          0.81974157	         -0.01302395	         31.12523819	         -1.27727053	         -5.28982780	         -9.24162326	          2.59003687	          0.24713961	        -15.08049680	         -0.60248435	         -0.47063898	         -8.46487114	          8.29759649	         28.72086961	         -5.97760164	          0.14874069	         -7.48721093	          0.08905140	          0.11954977	          0.00999999	          0.00999999	          0.18469120	          0.10109735	          0.15620949	          0.11007644	          0.08797522	          0.00999999	          0.00999999	          0.01426453	          0.01084904	          0.36596761	          0.11507296	          0.00999999	          0.00999999	          0.04935372	          0.02977440	          0.01762911	          0.18519961	          0.01703672	          0.40922653	          0.00999999	          0.00999999	          0.28984620	          0.25390088	          0.01962424	
          0.02332108	         -4.77554407	         -0.93720680	          6.89930874	          0.03185664	          0.81863287	         -0.01252223	         30.88927045	         -1.14074475	         -5.04114097	        -10.71140253	          2.11787515	          0.23750245	        -14.92250977	         -0.79770266	         -0.81277069	        -10.66784633	          7.47244212	         30.43853347	         -5.70856585	          0.67883458	         -7.79223421	          0.10380249	          0.10009674	          0.00999999	          0.05345386	          0.17325582	          0.08766349	          0.13079122	          0.12613376	          0.07365997	          0.00999999	          0.00999999	          0.01194342	          0.00999999	          0.42484224	          0.12675391	          0.00999999	          0.00999999	          0.04132292	          0.02492953	          0.01476053	          0.15506409	          0.01426452	          0.34263754	          0.00999999	          0.00999999	          0.24268268	          0.23682380	          0.01643100	
          0.03498162	         -4.79197080	         -0.95045598	          6.95708221	          0.04793838	          0.81794209	         -0.01189358	         30.57817015	         -1.00383427	         -4.89774694	        -12.06553167	          1.65892824	          0.22411016	        -14.55511279	         -1.00258683	         -1.18591073	        -13.22312871	          6.44041928	         32.03380219	         -5.44727238	          1.19672487	         -8.05974118	          0.10860833	          0.08380909	          0.00999999	          0.09558984	          0.21025073	          0.07446614	          0.10950899	          0.13220430	          0.06167408	          0.00999999	          0.00999999	          0.01000000	          0.00999999	          0.45596027	          0.15493682	          0.00999999	          0.00999999	          0.03459889	          0.02332380	          0.01998601	          0.12983220	          0.01194341	          0.28688386	          0.00999999	          0.00999999	          0.20319357	          0.21662956	          0.01375736	
          0.04664216	         -4.80045443	         -0.96155216	          6.98070609	          0.06389834	          0.81773257	         -0.01115530	         30.26192389	         -0.86649608	         -4.83649319	        -13.43294494	          1.34874571	          0.21080738	        -13.94819351	         -1.22189571	         -1.59076341	        -16.15338282	          5.22372828	         33.32464716	         -5.20555673	          1.70436659	         -8.28832230	          0.10699545	          0.07017174	          0.00999999	          0.12612405	          0.23403252	          0.06747717	          0.09168978	          0.13414084	          0.05163853	          0.00999999	          0.04074151	          0.00999999	          0.00999999	          0.46877493	          0.17929770	          0.00999999	          0.00999999	          0.02896899	          0.08644566	          0.02903872	          0.10870602	          0.00999999	          0.24020237	          0.00999999	          0.00999999	          0.17013009	          0.18436043	          0.01151878	
          0.05830270	         -4.80279566	         -0.96887573	          6.97073580	          0.07960855	          0.81808742	         -0.01033364	         29.93525917	         -0.72937967	         -4.83261320	        -14.78743577	          1.24381965	          0.19610022	        -13.07476597	         -1.45498673	         -2.04446927	        -19.47350918	          3.86281231	         34.05233172	         -4.99218543	          2.19968840	         -8.47632774	          0.10246255	          0.05875346	          0.00999999	          0.14395345	          0.25089623	          0.06574228	          0.07677010	          0.12315439	          0.04323595	          0.00999999	          0.08164132	          0.00999999	          0.00999999	          0.46220256	          0.19452936	          0.00999999	          0.00999999	          0.02425518	          0.15906613	          0.03661685	          0.09101747	          0.00999999	          0.20111685	          0.00999999	          0.00999999	          0.14244667	          0.15436146	          0.00999999	
          0.06996324	         -4.80115788	         -0.96736946	          6.92759375	          0.09500042	          0.81904811	         -0.00945902	         29.54820138	         -0.59068815	         -4.85188299	        -16.03810994	          1.40291138	          0.18711822	        -11.92400259	         -1.70250205	         -2.56325622	        -23.17645855	          2.38349914	         33.99527946	         -4.81050171	          2.67774936	         -8.62270100	          0.09710069	          0.04919315	          0.00999999	          0.15584267	          0.25488296	          0.06775774	          0.06427814	          0.10486382	          0.03620064	          0.00999999	          0.11451575	          0.00999999	          0.00999999	          0.42176018	          0.19969438	          0.00999999	          0.00999999	          0.02030840	          0.21498986	          0.03777998	          0.07620719	          0.00999999	          0.16839129	          0.00999999	          0.00999999	          0.11926787	          0.12924390	          0.00999999	
          0.08162378	         -4.79767942	         -0.94953579	          6.85097045	          0.11004103	          0.82060184	         -0.00856047	         29.04670246	         -0.44919652	         -4.85286125	        -17.08458432	          1.84306767	          0.20705341	        -10.51009199	         -1.96373250	         -3.13538508	        -27.17905096	          0.66193763	         33.20168985	         -4.66186547	          3.13177601	         -8.72598204	          0.08369167	          0.04118848	          0.00999999	          0.15815445	          0.24371244	          0.06946352	          0.05381886	          0.08780047	          0.03031010	          0.00999999	          0.15161395	          0.00999999	          0.00999999	          0.36358559	          0.20160271	          0.00999999	          0.00999999	          0.01700384	          0.28052221	          0.04702692	          0.06380683	          0.00999999	          0.14099081	          0.00999999	          0.00999999	          0.09986071	          0.10821344	          0.00999999	
